<?xml version="1.0" encoding="UTF-8" standalone="no"?>
<svg
   xmlns:dc="http://purl.org/dc/elements/1.1/"
   xmlns:cc="http://creativecommons.org/ns#"
   xmlns:rdf="http://www.w3.org/1999/02/22-rdf-syntax-ns#"
   xmlns:svg="http://www.w3.org/2000/svg"
   xmlns="http://www.w3.org/2000/svg"
   viewBox="0 0 428.25333 375.38666"
   height="375.38666"
   width="428.25333"
   xml:space="preserve"
   id="svg2"
   version="1.1"><metadata
     id="metadata8"><rdf:RDF><cc:Work
         rdf:about=""><dc:format>image/svg+xml</dc:format><dc:type
           rdf:resource="http://purl.org/dc/dcmitype/StillImage" /></cc:Work></rdf:RDF></metadata><defs
     id="defs6" /><g
     transform="matrix(1.3333333,0,0,-1.3333333,0,375.38667)"
     id="g10"><g
       transform="scale(0.1)"
       id="g12"><path
         id="path14"
         style="fill:#ffffff;fill-opacity:1;fill-rule:nonzero;stroke:none"
         d="m 1452.93,2714.84 c 59.79,82.41 142.01,119.88 231.7,67.43 29.9,-22.48 44.84,-44.96 59.79,-67.43 L 3179.46,249.766 c 22.42,-44.961 29.9,-82.422 22.42,-127.375 C 3171.99,39.9727 3104.72,10 3029.98,10 H 197.27 C 77.6797,10 -19.4805,84.9219 17.8906,212.297 l 7.4727,22.476 7.4726,22.485 L 1452.93,2714.84" /><path
         id="path16"
         style="fill:none;stroke:#30312d;stroke-width:20;stroke-linecap:square;stroke-linejoin:miter;stroke-miterlimit:10;stroke-dasharray:none;stroke-opacity:1"
         d="m 1452.93,2714.84 c 59.79,82.41 142.01,119.88 231.7,67.43 29.9,-22.48 44.84,-44.96 59.79,-67.43 L 3179.46,249.766 c 22.42,-44.961 29.9,-82.422 22.42,-127.375 C 3171.99,39.9727 3104.72,10 3029.98,10 H 197.27 C 77.6797,10 -19.4805,84.9219 17.8906,212.297 l 7.4727,22.476 7.4726,22.485 z" /><path
         id="path18"
         style="fill:#30312d;fill-opacity:1;fill-rule:nonzero;stroke:none"
         d="M 85.1563,227.285 1505.25,2684.86 c 22.42,44.96 59.79,67.44 97.16,67.44 37.37,0 74.74,-22.48 97.16,-67.44 L 3127.14,219.797 c 52.32,-82.422 0,-157.3478 -104.64,-157.3478 H 197.27 C 85.1563,62.4492 32.8359,137.375 85.1563,227.285 v 0" /><path
         id="path20"
         style="fill:#f7c515;fill-opacity:1;fill-rule:nonzero;stroke:none"
         d="M 2992.6,204.805 1609.89,2557.49 219.691,204.805 Z" /><path
         id="path22"
         style="fill:#30312d;fill-opacity:1;fill-rule:nonzero;stroke:none"
         d="m 1482.83,2100.44 -295.31,-1042.82 440.25,131.95 -85.15,-475.261 -112.11,14.976 104.64,-397.105 231.69,344.668 -112.11,14.976 224.23,794.226 -442.21,-162.91 227.38,777.3 h -181.3" /></g></g></svg>